<svg xmlns="http://www.w3.org/2000/svg" xmlns:xlink="http://www.w3.org/1999/xlink" version="1.1" x="0px" y="0px" width="100px" height="100px" viewBox="0 0 100 100" enable-background="new 0 0 100 100" xml:space="preserve">
<g id="Captions">
</g>
<g id="Your_Icon">
	<g>
		<g>
			<path d="M34.205,89.66c-3.951,0-7.165-3.214-7.165-7.164s3.214-7.164,7.165-7.164s7.165,3.214,7.165,7.164     S38.155,89.66,34.205,89.66z M34.205,78.542c-2.18,0-3.954,1.774-3.954,3.954s1.774,3.954,3.954,3.954s3.954-1.774,3.954-3.954     S36.384,78.542,34.205,78.542z"/>
		</g>
		<g>
			<path d="M82.09,89.66c-3.95,0-7.164-3.214-7.164-7.164s3.214-7.164,7.164-7.164c3.951,0,7.164,3.214,7.164,7.164     S86.041,89.66,82.09,89.66z M82.09,78.542c-2.181,0-3.954,1.774-3.954,3.954s1.773,3.954,3.954,3.954     c2.18,0,3.953-1.774,3.953-3.954S84.27,78.542,82.09,78.542z"/>
		</g>
		<path d="M71.309,84.102H44.993c-0.886,0-1.605-0.719-1.605-1.605s0.719-1.605,1.605-1.605h26.316c0.887,0,1.604,0.719,1.604,1.605    S72.195,84.102,71.309,84.102z"/>
		<path d="M89.471,30.633l-67.155-9.774l-0.67-3.594c-0.625-3.348-3.718-6.114-7.094-6.485c-0.536-0.906-1.519-1.516-2.647-1.516    H5.359c-1.699,0-3.077,1.377-3.077,3.076c0,1.7,1.377,3.077,3.077,3.077h6.546c1.083,0,2.033-0.561,2.582-1.406    c1.901,0.331,3.651,1.955,4.003,3.842l7.952,42.645c0.659,3.53,4.03,6.288,7.607,6.288c0.106,0,0.214-0.002,0.322-0.007    l52.485-2.449c3.703-0.172,6.96-3.317,7.261-7.011l1.544-18.912C95.967,34.662,93.189,31.174,89.471,30.633z M91.509,49.808    h-8.035l-0.07-10.167h8.937L91.509,49.808z M70.786,61.866l-0.779-8.85h10.278l0.059,8.404L70.786,61.866z M43.746,62.193    l-1.671-9.177h10.929l1.361,9.616l-10.733,0.5C43.759,62.848,43.806,62.522,43.746,62.193z M25.818,39.641h10.558l1.852,10.167    H27.714L25.818,39.641z M39.639,39.641h11.469l1.439,10.167H41.491L39.639,39.641z M49.466,28.055l1.187,8.376H39.055    l-1.85-10.161L49.466,28.055z M64.783,30.284l0.541,6.147H53.896l-1.12-7.895L64.783,30.284z M68.047,30.759l12.097,1.76    l0.028,3.912H68.547L68.047,30.759z M65.607,39.641l0.894,10.167h-10.71L54.35,39.641H65.607z M57.555,62.255l-1.309-9.238h10.537    l0.792,9l-10.008,0.467C57.567,62.408,57.564,62.332,57.555,62.255z M69.725,49.808l-0.896-10.167h11.364l0.07,10.167H69.725z     M92.198,36.431h-8.817l-0.023-3.443l5.65,0.822C90.46,34.021,91.677,35.091,92.198,36.431z M33.854,25.782l1.939,10.649H25.22    l-2.282-12.238L33.854,25.782z M34.221,63.573c-2.119,0.104-4.234-1.579-4.624-3.662l-1.285-6.895h10.499l1.776,9.751    c0.033,0.18,0.097,0.348,0.182,0.499L34.221,63.573z M86.707,61.125l-3.154,0.146l-0.057-8.255h7.751l-0.33,4.042    C90.745,59.164,88.816,61.025,86.707,61.125z"/>
	</g>
</g>
</svg>