<?xml version="1.0" encoding="UTF-8" standalone="no"?>
<svg
   xmlns:dc="http://purl.org/dc/elements/1.1/"
   xmlns:cc="http://creativecommons.org/ns#"
   xmlns:rdf="http://www.w3.org/1999/02/22-rdf-syntax-ns#"
   xmlns:svg="http://www.w3.org/2000/svg"
   xmlns="http://www.w3.org/2000/svg"
   xmlns:sodipodi="http://sodipodi.sourceforge.net/DTD/sodipodi-0.dtd"
   xmlns:inkscape="http://www.inkscape.org/namespaces/inkscape"
   version="1.1"
   id="Layer_1"
   x="0px"
   y="0px"
   width="100px"
   height="100px"
   viewBox="0 0 100 100"
   enable-background="new 0 0 100 100"
   xml:space="preserve"
   inkscape:version="0.48.3.1 r9886"
   sodipodi:docname="noun_project_9511.svg"><metadata
   id="metadata3417"><rdf:RDF><cc:Work
       rdf:about=""><dc:format>image/svg+xml</dc:format><dc:type
         rdf:resource="http://purl.org/dc/dcmitype/StillImage" /></cc:Work></rdf:RDF></metadata><defs
   id="defs3415" /><sodipodi:namedview
   pagecolor="#ffffff"
   bordercolor="#666666"
   borderopacity="1"
   objecttolerance="10"
   gridtolerance="10"
   guidetolerance="10"
   inkscape:pageopacity="0"
   inkscape:pageshadow="2"
   inkscape:window-width="1440"
   inkscape:window-height="845"
   id="namedview3413"
   showgrid="false"
   inkscape:zoom="2.36"
   inkscape:cx="50"
   inkscape:cy="50.211864"
   inkscape:window-x="-2"
   inkscape:window-y="-3"
   inkscape:window-maximized="1"
   inkscape:current-layer="Layer_1" />
<path
   d="M93.253,13.232H25.484C24.29,3.461,17.735,0.277,14.1,0.009L3.25,0v6.409h10.421c0.921,0.143,5.611,1.298,5.611,10.028  v37.66v9.579c0,4.72,2.316,7.751,5.143,9.617c-3.193,2.788-5.225,6.878-5.225,11.439c0,8.383,6.817,15.201,15.198,15.201  s15.199-6.818,15.199-15.201c0-3.32-1.083-6.386-2.898-8.891l20.749,0.003c-1.813,2.504-2.896,5.569-2.896,8.888  c0,8.383,6.817,15.201,15.198,15.201S94.95,93.115,94.95,84.732c0-8.359-6.788-15.165-15.143-15.195v-0.1H32.302  c-0.833-0.075-6.611-0.781-6.611-5.762v-6.375h61.094c6.683,0,9.441-5.671,9.667-9.484c0.003-0.063,0.005-0.126,0.005-0.188V16.437  C96.457,14.667,95.022,13.232,93.253,13.232z M34.399,93.523c-4.847,0-8.79-3.943-8.79-8.791c0-4.847,3.943-8.79,8.79-8.79  c4.847,0,8.791,3.943,8.791,8.79C43.19,89.58,39.247,93.523,34.399,93.523z M88.542,84.732c0,4.848-3.942,8.791-8.791,8.791  c-4.847,0-8.789-3.943-8.789-8.791c0-4.847,3.942-8.79,8.789-8.79C84.6,75.942,88.542,79.886,88.542,84.732z M90.049,47.495  c-0.104,1.09-0.637,3.397-3.264,3.397H25.691V19.641h64.358V47.495z"
   id="path3411"
   style="fill:#002255" />
</svg>