<svg xmlns="http://www.w3.org/2000/svg" xmlns:xlink="http://www.w3.org/1999/xlink" version="1.1" id="Your_Icon" x="0px" y="0px" width="100px" height="100px" viewBox="0 0 100 100" enable-background="new 0 0 100 100" xml:space="preserve">
<circle cx="32.967" cy="54.381" r="10.337"/>
<circle cx="66.83" cy="54.381" r="10.338"/>
<path d="M54.596,19.615c0-1.747-1.229-3.162-2.748-3.162c-0.746,0-1.424,0.343-1.919,0.898c-0.512,0.575-0.831,1.376-0.831,2.264  c0-0.886-0.317-1.684-0.827-2.259c-0.496-0.558-1.174-0.903-1.923-0.903c-1.518,0-2.749,1.416-2.749,3.162  c0,0.861,0.303,1.637,0.788,2.208l0,0l0.115,0.13l4.6,5.292l4.682-5.386l0.016-0.016l0.016-0.02v-0.001  C54.299,21.251,54.596,20.474,54.596,19.615z"/>
<path fill="none" d="M49.097,93.891c0,0.771,0,1.435,0,1.952c0.446,0.017,0.895,0.025,1.345,0.028c0-0.51,0-1.17,0-1.951  C49.992,93.917,49.543,93.907,49.097,93.891z"/>
<path d="M66.945,33.636c0.07-0.313,0.117-0.638,0.117-0.974c0-0.352-0.054-0.689-0.131-1.017c1.797-1.454,2.893-3.829,2.909-6.731  c0.023-3.893-1.836-7.075-4.612-8.38c-0.246-1.425-0.869-2.752-1.842-3.879c-1.648-1.909-4.188-3.048-6.798-3.048  c-0.981,0-1.938,0.153-2.848,0.451c-1.8-2.284-4.636-3.578-8.07-3.578c-4.546,0-9.088,2.217-11.304,5.518  c-0.886,1.321-1.36,2.753-1.411,4.208c-2.797,1.304-4.61,4.289-4.604,8.028c0.005,3.149,1.294,5.818,3.329,7.407  c-0.053,0.273-0.085,0.554-0.085,0.842c0,0.335,0.045,0.659,0.117,0.974c-1.26,0.469-2.164,1.673-2.164,3.095  c0,0.903,0.365,1.722,0.954,2.32c-0.294,0.406-0.472,0.901-0.472,1.439c0,1.361,1.108,2.468,2.468,2.468  c1.361,0,2.469-1.107,2.469-2.468c0-0.37-0.087-0.717-0.234-1.033c0.785-0.542,1.312-1.416,1.407-2.415  c2.108-0.073,3.834-1.627,4.173-3.657h18.013c0.265,2.116,2.021,3.763,4.188,3.838c0.096,0.999,0.623,1.874,1.408,2.415  c-0.146,0.315-0.234,0.663-0.234,1.033c0,1.361,1.107,2.468,2.47,2.468s2.469-1.107,2.469-2.468c0-0.539-0.179-1.034-0.474-1.44  c0.591-0.598,0.955-1.417,0.955-2.319C69.111,35.311,68.206,34.105,66.945,33.636z M32.5,40.974c-0.365,0-0.661-0.298-0.661-0.664  c0-0.366,0.296-0.661,0.661-0.661c0.366,0,0.663,0.295,0.663,0.661C33.163,40.676,32.866,40.974,32.5,40.974z M33.296,37.986  c-0.251-0.086-0.516-0.143-0.795-0.143c-0.115,0-0.225,0.019-0.336,0.034c-0.478-0.253-0.807-0.749-0.807-1.326  c0-0.83,0.675-1.505,1.505-1.505c0.83,0,1.505,0.676,1.505,1.505C34.368,37.23,33.914,37.799,33.296,37.986z M35.993,35.072  c-0.066,0-0.128-0.015-0.194-0.021c-0.448-0.874-1.26-1.528-2.246-1.738c-0.089-0.262-0.149-0.539-0.149-0.831  c0-1.428,1.161-2.589,2.588-2.589c1.428,0,2.589,1.162,2.589,2.589C38.581,33.91,37.421,35.072,35.993,35.072z M58.966,30.315  c-6.22,0-14.515,0-19.172,0c-0.758-1.324-2.169-2.229-3.801-2.229c-1.078,0-2.053,0.405-2.818,1.052  c-3.267-3.004-2.471-10.736,3.059-10.754c-1.997-4.88,4.062-9.015,9.439-9.015c3.046,0,5.873,1.325,6.897,4.591  c1.222-1.012,2.644-1.464,4.019-1.464c3.304,0,6.351,2.6,5.806,6.29c4.588,0.054,5.974,7.526,2.944,10.409  c-0.743-0.573-1.661-0.928-2.67-0.928C61.109,28.268,59.746,29.089,58.966,30.315z M62.861,35.232  c-0.064,0.005-0.127,0.02-0.193,0.02c-1.428,0-2.59-1.161-2.59-2.589c0-1.428,1.162-2.588,2.59-2.588s2.59,1.161,2.59,2.588  c0,0.292-0.06,0.569-0.148,0.831C64.124,33.703,63.311,34.358,62.861,35.232z M66.16,41.153c-0.365,0-0.662-0.296-0.662-0.662  c0-0.366,0.297-0.664,0.662-0.664s0.662,0.297,0.662,0.664C66.822,40.857,66.525,41.153,66.16,41.153z M66.496,38.057  c-0.109-0.016-0.221-0.034-0.336-0.034c-0.279,0-0.544,0.057-0.795,0.143c-0.617-0.187-1.072-0.755-1.072-1.434  c0-0.831,0.676-1.506,1.504-1.506c0.832,0,1.506,0.676,1.506,1.506C67.303,37.308,66.975,37.804,66.496,38.057z"/>
<path d="M32.838,66.785c-7.347,0-15.125,3.169-16.145,10.876v16.229h32.403c0-1.229,0-2.718,0-4.313  c0.001,0.001,0.001-9.764,0.001-10.169C49.097,70.43,40.918,66.785,32.838,66.785z"/>
<path d="M66.701,66.785c-7.881,0-16.259,3.645-16.259,12.624c0,0.583,0,9.72,0,9.72c0,1.854,0,3.488,0,4.791  c0.085,0,0.169,0.004,0.256,0.004h32.263V79.688c0-0.094,0-0.188,0-0.277C82.961,70.43,74.781,66.785,66.701,66.785z"/>
</svg>