<?xml version="1.0" encoding="UTF-8" standalone="no"?>
<svg
   xmlns:dc="http://purl.org/dc/elements/1.1/"
   xmlns:cc="http://creativecommons.org/ns#"
   xmlns:rdf="http://www.w3.org/1999/02/22-rdf-syntax-ns#"
   xmlns:svg="http://www.w3.org/2000/svg"
   xmlns="http://www.w3.org/2000/svg"
   xmlns:sodipodi="http://sodipodi.sourceforge.net/DTD/sodipodi-0.dtd"
   xmlns:inkscape="http://www.inkscape.org/namespaces/inkscape"
   version="1.1"
   x="0px"
   y="0px"
   width="100px"
   height="100px"
   viewBox="0 0 100 100"
   enable-background="new 0 0 100 100"
   xml:space="preserve"
   id="svg3225"
   inkscape:version="0.48.3.1 r9886"
   sodipodi:docname="noun_project_7671.svg"><metadata
   id="metadata3239"><rdf:RDF><cc:Work
       rdf:about=""><dc:format>image/svg+xml</dc:format><dc:type
         rdf:resource="http://purl.org/dc/dcmitype/StillImage" /></cc:Work></rdf:RDF></metadata><defs
   id="defs3237" /><sodipodi:namedview
   pagecolor="#ffffff"
   bordercolor="#666666"
   borderopacity="1"
   objecttolerance="10"
   gridtolerance="10"
   guidetolerance="10"
   inkscape:pageopacity="0"
   inkscape:pageshadow="2"
   inkscape:window-width="1440"
   inkscape:window-height="845"
   id="namedview3235"
   showgrid="false"
   inkscape:zoom="6.42"
   inkscape:cx="50"
   inkscape:cy="50.077882"
   inkscape:window-x="-2"
   inkscape:window-y="-3"
   inkscape:window-maximized="1"
   inkscape:current-layer="svg3225" />
<g
   id="Captions"
   style="fill:#002255">
</g>
<g
   id="Your_Icon"
   style="fill:#002255">
	<g
   id="g3229"
   style="fill:#002255">
		<path
   d="M91.643,56.112c-3.509,0-6.355,2.848-6.355,6.355v8.524c0,8.372-5.773,10.127-10.618,10.127H25.555    c-6.876,0-10.98-4.34-10.98-11.608V31.859c0-10.865,7.148-13.145,13.145-13.145h10.989c3.51,0,6.357-2.847,6.357-6.357    C45.067,8.847,42.22,6,38.709,6H27.72C12.012,6,1.861,16.152,1.861,31.859v37.652c0,14.319,9.744,24.322,23.694,24.322h49.114    C88.624,93.833,98,84.655,98,70.992v-8.524C98,58.96,95.153,56.112,91.643,56.112z"
   id="path3231"
   style="fill:#002255" />
		<path
   d="M91.643,6H62.752c-3.511,0-6.356,2.847-6.356,6.356c0,3.51,2.846,6.357,6.356,6.357h13.188    c-13.69,13.698-15.457,15.467-35.697,35.334c-2.506,2.459-2.544,6.482-0.083,8.989c1.244,1.266,2.889,1.903,4.535,1.903    c1.607,0,3.216-0.607,4.453-1.819c20.292-19.917,22.058-21.686,35.799-35.435l0.342-0.341v11.74c0,3.51,2.847,6.356,6.355,6.356    c3.511,0,6.357-2.846,6.357-6.356V12.356C98,8.847,95.153,6,91.643,6z"
   id="path3233"
   style="fill:#002255" />
	</g>
</g>
</svg>