<?xml version="1.0" encoding="UTF-8" standalone="no"?>
<svg
   xmlns:dc="http://purl.org/dc/elements/1.1/"
   xmlns:cc="http://creativecommons.org/ns#"
   xmlns:rdf="http://www.w3.org/1999/02/22-rdf-syntax-ns#"
   xmlns:svg="http://www.w3.org/2000/svg"
   xmlns="http://www.w3.org/2000/svg"
   xmlns:sodipodi="http://sodipodi.sourceforge.net/DTD/sodipodi-0.dtd"
   xmlns:inkscape="http://www.inkscape.org/namespaces/inkscape"
   version="1.1"
   x="0px"
   y="0px"
   width="100px"
   height="100px"
   viewBox="0 0 100 100"
   enable-background="new 0 0 100 100"
   xml:space="preserve"
   id="svg3340"
   inkscape:version="0.48.3.1 r9886"
   sodipodi:docname="noun_project_7073.svg"><metadata
   id="metadata3354"><rdf:RDF><cc:Work
       rdf:about=""><dc:format>image/svg+xml</dc:format><dc:type
         rdf:resource="http://purl.org/dc/dcmitype/StillImage" /></cc:Work></rdf:RDF></metadata><defs
   id="defs3352" /><sodipodi:namedview
   pagecolor="#ffffff"
   bordercolor="#666666"
   borderopacity="1"
   objecttolerance="10"
   gridtolerance="10"
   guidetolerance="10"
   inkscape:pageopacity="0"
   inkscape:pageshadow="2"
   inkscape:window-width="1440"
   inkscape:window-height="845"
   id="namedview3350"
   showgrid="false"
   inkscape:zoom="6.42"
   inkscape:cx="50"
   inkscape:cy="50.155764"
   inkscape:window-x="-2"
   inkscape:window-y="-3"
   inkscape:window-maximized="1"
   inkscape:current-layer="svg3340" />
<g
   id="Captions"
   style="fill:#002255">
</g>
<g
   id="Your_Icon"
   style="fill:#002255">
	<path
   fill="#000000"
   d="M39.823,4.775L29.16,17.158c-2.396,2.803-4.309,6.426-5.743,10.259c-1.415,3.84-2.329,7.833-2.342,11.521   v42.786c0,2.136,1.73,3.866,3.865,3.865c2.135,0,3.865-1.73,3.864-3.864l0.001-42.787c-0.014-2.34,0.682-5.69,1.857-8.833   c1.158-3.146,2.819-6.139,4.354-7.903L45.681,9.819c1.296-1.484,2.78-2.077,4.246-2.09c1.46,0.012,2.941,0.601,4.237,2.074   l10.795,12.438c1.54,1.754,3.208,4.739,4.371,7.88c1.181,3.134,1.878,6.481,1.865,8.816V85.18c-0.002,1.947-0.79,3.702-2.087,5.005   c-1.302,1.297-3.055,2.084-5.001,2.086h-18.83c-1.171-0.001-2.221-0.472-3.012-1.258c-0.787-0.792-1.257-1.842-1.258-3.013V51.613   c-0.001-4.475,0-11.885,0-11.885c0-0.001,0-0.001-0.001-0.002c-0.007-1.232,0.338-2.84,0.913-4.301   c0.562-1.463,1.369-2.798,1.98-3.495l5.705-6.625l5.794,6.676c1.428,1.609,2.927,4.659,2.895,7.747v7.453c0,0.002,0,0.003,0,0.004   l0.001,36.062c-0.001,2.134,1.73,3.864,3.864,3.864s3.864-1.729,3.864-3.864v-36.05c0-0.006,0.001-0.011,0.001-0.016h-0.001v-7.453   c-0.032-5.405-2.264-9.877-4.786-12.814l-8.018-9.237c-0.206-0.232-0.482-0.536-0.98-0.894c-0.421-0.284-1.059-0.693-2.081-0.823   c-0.183-0.027-0.365-0.04-0.552-0.04c-0.001,0-0.002-0.001-0.004-0.001s-0.004,0-0.006,0c0,0.001,0,0.001,0,0.001l-0.001-0.001   c-0.004,0-0.007,0-0.011,0c-1.361,0.029-2.149,0.537-2.642,0.872c-0.499,0.361-0.775,0.667-0.979,0.896l-7.921,9.2   c-1.357,1.589-2.465,3.541-3.327,5.732c-0.846,2.189-1.432,4.598-1.439,7.108c0,0.001-0.001,0.004-0.001,0.004   c0,0.072,0.001,7.428,0.001,11.881V88c0.015,6.625,5.374,11.986,12,12h19.646c0.298,0.001,0.588-0.037,0.865-0.101   c7.385-0.849,13.123-7.112,13.137-14.72V38.938c-0.013-3.69-0.933-7.685-2.354-11.52c-1.441-3.831-3.364-7.447-5.773-10.243   L60.001,4.735C57.354,1.67,53.651-0.01,49.928,0C46.188-0.012,42.469,1.685,39.823,4.775z"
   id="path3344"
   style="fill:#002255" />
	<polygon
   fill="#000000"
   points="49.599,15.919 49.603,15.919 49.604,15.92  "
   id="polygon3346"
   style="fill:#002255" />
	<path
   fill="#000000"
   d="M50.138,15.956c-0.213-0.029-0.391-0.036-0.533-0.037c0,0,0.001,0.001,0.002,0.001   C49.794,15.923,49.971,15.937,50.138,15.956z"
   id="path3348"
   style="fill:#002255" />
</g>
</svg>